<svg xmlns="http://www.w3.org/2000/svg" xmlns:xlink="http://www.w3.org/1999/xlink" version="1.1" width="841.89pt" height="595.28pt" viewBox="0 0 841.89 595.28">
<defs>
<clipPath id="clip_0">
<path transform="matrix(1,0,0,-1,0,595.28)" d="M0 595.28H841.89V0H0Z"/>
</clipPath>
<clipPath id="clip_1">
<path transform="matrix(1,0,0,-1,0,595.28)" d="M540.798 460.45H554.314V467.749H540.798Z"/>
</clipPath>
<clipPath id="clip_2">
<path transform="matrix(1,0,0,-1,0,595.28)" d="M540.798 462.883H544.975V478.629H540.798Z"/>
</clipPath>
<clipPath id="clip_3">
<path transform="matrix(1,0,0,-1,0,595.28)" d="M527.282 462.883H540.798V469.252H527.282Z"/>
</clipPath>
<clipPath id="clip_4">
<path transform="matrix(1,0,0,-1,0,595.28)" d="M532.444 450.144H540.798V462.883H532.444Z"/>
</clipPath>
<clipPath id="clip_5">
<path transform="matrix(1,0,0,-1,0,595.28)" d="M540.798 450.144H549.152V462.883H540.798Z"/>
</clipPath>
<clipPath id="clip_6">
<path transform="matrix(1,0,0,-1,0,595.28)" d="M451.292 474.927H464.809V482.226H451.292Z"/>
</clipPath>
<clipPath id="clip_7">
<path transform="matrix(1,0,0,-1,0,595.28)" d="M451.292 477.36H455.469V493.106H451.292Z"/>
</clipPath>
<clipPath id="clip_8">
<path transform="matrix(1,0,0,-1,0,595.28)" d="M437.776 477.36H451.292V483.729H437.776Z"/>
</clipPath>
<clipPath id="clip_9">
<path transform="matrix(1,0,0,-1,0,595.28)" d="M442.938 464.621H451.292V477.36H442.938Z"/>
</clipPath>
<clipPath id="clip_10">
<path transform="matrix(1,0,0,-1,0,595.28)" d="M451.292 464.621H459.646V477.36H451.292Z"/>
</clipPath>
<clipPath id="clip_11">
<path transform="matrix(1,0,0,-1,0,595.28)" d="M355.951 459.062H369.468V466.361H355.951Z"/>
</clipPath>
<clipPath id="clip_12">
<path transform="matrix(1,0,0,-1,0,595.28)" d="M355.951 461.495H360.128V477.241H355.951Z"/>
</clipPath>
<clipPath id="clip_13">
<path transform="matrix(1,0,0,-1,0,595.28)" d="M342.435 461.495H355.951V467.865H342.435Z"/>
</clipPath>
<clipPath id="clip_14">
<path transform="matrix(1,0,0,-1,0,595.28)" d="M347.598 448.757H355.951V461.495H347.598Z"/>
</clipPath>
<clipPath id="clip_15">
<path transform="matrix(1,0,0,-1,0,595.28)" d="M355.951 448.757H364.305V461.495H355.951Z"/>
</clipPath>
<clipPath id="clip_16">
<path transform="matrix(1,0,0,-1,0,595.28)" d="M330.593 217.153H566.145V360.265H330.593Z"/>
</clipPath>
</defs>
<g>
<g id="layer_1" data-name="">
<g clip-path="url(#clip_0)">
<path transform="matrix(1,0,0,-1,667.8437,214.67383)" stroke-width="5.394" stroke-linecap="butt" stroke-miterlimit="4" stroke-linejoin="miter" fill="none" stroke="#e9d800" d="M0 0C-31.87 16.168-51.232 48.049-49.832 82.233-90.227 102.667-145.804 118.807-217.766 118.827V118.833H-217.854-217.954V118.827C-289.917 118.807-345.495 102.667-385.889 82.234-384.489 48.051-403.851 16.171-435.72 .002-432.338-85.243-401.508-258.274-217.954-358.176V-358.29C-217.931-358.272-217.904-358.254-217.854-358.242-217.829-358.254-217.798-358.272-217.766-358.29V-358.176C-34.215-258.275-3.383-85.245 0 0Z"/>
<path transform="matrix(1,0,0,-1,603.1758,233.90872)" stroke-width="4.015" stroke-linecap="butt" stroke-miterlimit="4" stroke-linejoin="miter" fill="none" stroke="#e9d800" d="M0 0C-22.865 12.254-37.054 36.897-36.521 63.564-65.501 79.05-105.211 91.021-156.346 90.244V90.249C-156.369 90.248-156.391 90.248-156.409 90.248-156.444 90.247-156.463 90.247-156.479 90.247V90.242C-207.614 89.434-246.889 76.239-275.315 59.863-273.858 33.228-287.186 8.159-309.612-4.798-306.057-71.222-281.811-205.786-150.031-281.652-150.031-281.675-150.03-281.741-150.03-281.741-150.013-281.727-149.995-281.712-149.96-281.702-149.941-281.711-149.919-281.725-149.896-281.739-149.896-281.739-149.897-281.673-149.897-281.65-20.821-201.741-1.252-66.499 0 0Z"/>
<path transform="matrix(1,0,0,-1,556.957,126.58014)" d="M0 0-11.166 1.797-16.159 13.006-21.152 1.797-32.317 0-24.238-8.726-26.146-21.046-16.159-15.229-6.173-21.046-8.08-8.726Z" fill="#be1e2d"/>
<g style="mix-blend-mode:multiply">
<g clip-path="url(#clip_1)">
<path transform="matrix(1,0,0,-1,554.3145,127.53134)" d="M0 0-13.517-4.866-6.758-7.299Z" fill="#be1e2d"/>
</g>
</g>
<g style="mix-blend-mode:multiply">
<g clip-path="url(#clip_2)">
<path transform="matrix(1,0,0,-1,540.7979,116.65143)" d="M0 0V-15.746L4.177-9.376Z" fill="#be1e2d"/>
</g>
</g>
<g style="mix-blend-mode:multiply">
<g clip-path="url(#clip_3)">
<path transform="matrix(1,0,0,-1,527.2812,127.53134)" d="M0 0 13.517-4.866 9.34 1.503Z" fill="#be1e2d"/>
</g>
</g>
<g style="mix-blend-mode:multiply">
<g clip-path="url(#clip_4)">
<path transform="matrix(1,0,0,-1,532.4443,145.13623)" d="M0 0 8.354 12.739 1.596 10.306Z" fill="#be1e2d"/>
</g>
</g>
<g style="mix-blend-mode:multiply">
<g clip-path="url(#clip_5)">
<path transform="matrix(1,0,0,-1,549.1514,145.13623)" d="M0 0-8.354 12.739V4.866Z" fill="#be1e2d"/>
</g>
</g>
<path transform="matrix(1,0,0,-1,467.4512,112.10303)" d="M0 0-11.165 1.797-16.159 13.007-21.152 1.797-32.317 0-24.238-8.725-26.146-21.046-16.159-15.229-6.173-21.046-8.08-8.725Z" fill="#be1e2d"/>
<g style="mix-blend-mode:multiply">
<g clip-path="url(#clip_6)">
<path transform="matrix(1,0,0,-1,464.8086,113.05423)" d="M0 0-13.517-4.866-6.758-7.299Z" fill="#be1e2d"/>
</g>
</g>
<g style="mix-blend-mode:multiply">
<g clip-path="url(#clip_7)">
<path transform="matrix(1,0,0,-1,451.292,102.17383)" d="M0 0V-15.746L4.177-9.377Z" fill="#be1e2d"/>
</g>
</g>
<g style="mix-blend-mode:multiply">
<g clip-path="url(#clip_8)">
<path transform="matrix(1,0,0,-1,437.7754,113.05423)" d="M0 0 13.517-4.866 9.34 1.503Z" fill="#be1e2d"/>
</g>
</g>
<g style="mix-blend-mode:multiply">
<g clip-path="url(#clip_9)">
<path transform="matrix(1,0,0,-1,442.9385,130.65872)" d="M0 0 8.354 12.739 1.596 10.306Z" fill="#be1e2d"/>
</g>
</g>
<g style="mix-blend-mode:multiply">
<g clip-path="url(#clip_10)">
<path transform="matrix(1,0,0,-1,459.6455,130.65872)" d="M0 0-8.354 12.739V4.866Z" fill="#be1e2d"/>
</g>
</g>
<path transform="matrix(1,0,0,-1,372.1104,127.967838)" d="M0 0-11.166 1.798-16.159 13.007-21.152 1.798-32.317 0-24.238-8.725-26.146-21.046-16.159-15.229-6.172-21.046-8.08-8.725Z" fill="#be1e2d"/>
<g style="mix-blend-mode:multiply">
<g clip-path="url(#clip_11)">
<path transform="matrix(1,0,0,-1,369.4678,128.91892)" d="M0 0-13.516-4.866-6.758-7.298Z" fill="#be1e2d"/>
</g>
</g>
<g style="mix-blend-mode:multiply">
<g clip-path="url(#clip_12)">
<path transform="matrix(1,0,0,-1,355.9517,118.038639)" d="M0 0V-15.746L4.177-9.376Z" fill="#be1e2d"/>
</g>
</g>
<g style="mix-blend-mode:multiply">
<g clip-path="url(#clip_13)">
<path transform="matrix(1,0,0,-1,342.4351,128.91892)" d="M0 0 13.517-4.866 9.339 1.504Z" fill="#be1e2d"/>
</g>
</g>
<g style="mix-blend-mode:multiply">
<g clip-path="url(#clip_14)">
<path transform="matrix(1,0,0,-1,347.5977,146.52344)" d="M0 0 8.354 12.739 1.596 10.306Z" fill="#be1e2d"/>
</g>
</g>
<g style="mix-blend-mode:multiply">
<g clip-path="url(#clip_15)">
<path transform="matrix(1,0,0,-1,364.3052,146.52344)" d="M0 0-8.354 12.739V4.866Z" fill="#be1e2d"/>
</g>
</g>
<path transform="matrix(1,0,0,-1,292.4131,367.53425)" d="M0 0 9.282 8.063C11.386 9.894 13.382 11.354 15.322 12.795L15.276 12.905C12.828 12.556 10.301 12.237 7.729 12.03L-4.6 11.277ZM-8.786 10.736-22.149 9.82-24.188 14.82 18.444 17.373 20.823 11.541-11.407-16.512-13.515-11.345-3.369-2.541Z" fill="#be1e2d"/>
<path transform="matrix(1,0,0,-1,320.7983,397.25294)" d="M0 0C.781 .446 1.428 .887 1.933 1.452 4.111 3.808 5.014 7.298 3.106 10.631 .6 15.003-4.886 16.009-10.716 12.667-15.662 9.833-18.343 4.979-15.508 .033-13.898-2.777-10.666-4.314-7.184-3.633-6.254-3.445-5.31-3.043-4.529-2.595ZM12.658 .96C10.776 .021 8.686-1.04 5.615-2.8L-9.013-11.183C-14.792-14.493-18.987-15.376-22.576-14.182-26.269-13.049-29.025-9.926-30.845-6.75-32.575-3.731-33.756 .019-33.566 2.823L-29.422 3.678C-29.508 1.414-28.954-1.726-27.164-4.848-24.479-9.532-20.063-11.566-13.713-7.928L-10.902-6.316-10.961-6.213C-14.109-6.149-17.534-4.517-19.771-.613-23.351 5.634-20.607 13.154-13.632 17.15-5.094 22.044 2.938 19.247 6.25 13.47 8.756 9.097 7.837 5.39 6.382 3.103L6.441 2.998 10.36 4.968Z" fill="#be1e2d"/>
<path transform="matrix(1,0,0,-1,334.7876,429.2813)" d="M0 0C2.951 1.609 6.775 5.442 3.837 10.605 1.197 15.247-4.236 14.847-7.625 13.401ZM-10.939 11.585C-17.086 7.95-17.386 2.532-14.775-2.057-12.906-5.341-11.205-6.997-9.495-8.302L-12.336-10.953C-13.986-9.753-16.393-7.464-18.677-3.448-23.099 4.321-20.629 11.87-13.015 16.202-5.402 20.534 3.147 19.463 7.331 12.108 12.018 3.87 6.017-2.443 1.375-5.085 .437-5.618-.353-5.931-.852-6.145Z" fill="#be1e2d"/>
<path transform="matrix(1,0,0,-1,345.5718,439.16316)" d="M0 0C2.226 2.012 4.01 3.705 5.671 5.447L8.809 1.975 5.448-1.465 5.529-1.554C8.542-.773 12.797-1.455 16.015-5.016 18.71-7.999 21.114-14.237 13.724-20.915L.859-32.541-2.681-28.623 9.739-17.399C13.211-14.262 14.938-10.356 11.599-6.662 9.266-4.08 5.631-3.726 2.846-5.029 2.196-5.294 1.448-5.808 .78-6.412L-12.174-18.117-15.714-14.2Z" fill="#be1e2d"/>
<path transform="matrix(1,0,0,-1,370.4575,498.54304)" d="M0 0C-1.437 .45-4.204 1.9-6.922 4.621-13.029 10.735-13.084 18.953-7.226 25.294-1.328 31.679 7.214 32.036 13.823 25.42 15.998 23.243 17.408 20.76 17.937 19.239L14.408 17.165C14.005 18.557 13.06 20.41 11.052 22.421 6.409 27.068 .653 26.067-3.345 21.74-7.779 16.94-7.498 10.971-3.482 6.951-1.391 4.856 .504 4.032 1.986 3.456Z" fill="#be1e2d"/>
<path transform="matrix(1,0,0,-1,444.3984,541.3574)" d="M0 0C0 .66-.06 1.561-.24 2.22-1.02 5.58-3.899 8.34-7.859 8.34-13.319 8.34-16.56 3.54-16.56-2.88-16.56-8.76-13.68-13.619-7.979-13.619-4.439-13.619-1.2-11.279-.24-7.319-.06-6.6 0-5.88 0-5.039ZM5.28 25.379V-9.72C5.28-12.299 5.34-15.239 5.52-17.219H.78L.54-12.18H.42C-1.2-15.419-4.739-17.879-9.479-17.879-16.499-17.879-21.899-11.939-21.899-3.119-21.959 6.54-15.959 12.479-8.88 12.479-4.439 12.479-1.439 10.38-.12 8.04H0V25.379Z" fill="#be1e2d"/>
<path transform="matrix(1,0,0,-1,472.0889,540.5625)" d="M0 0C.056 3.159-1.29 8.069-6.84 8.069-11.83 8.069-14.016 3.441-14.408 0ZM-14.464-3.556C-14.352-10.271-10.091-13.037-5.158-13.037-1.626-13.037 .504-12.416 2.354-11.625L3.194-15.181C1.457-15.971-1.514-16.874-5.831-16.874-14.184-16.874-19.174-11.344-19.174-3.104-19.174 5.135-14.352 11.625-6.447 11.625 2.41 11.625 4.765 3.78 4.765-1.242 4.765-2.258 4.653-3.048 4.597-3.556Z" fill="#be1e2d"/>
<path transform="matrix(1,0,0,-1,511.7949,520.2617)" d="M0 0C2.557 .875 5.605 2.721 7.857 5.453 11.197 9.506 11.008 13.637 7.912 16.188 5.043 18.553 2.053 18.264-2.956 15.434-8.859 11.888-14.007 10.93-18.333 14.494-23.114 18.435-23.402 25.324-18.486 31.289-15.897 34.431-13.292 36.107-11.393 36.836L-9.06 33.078C-10.432 32.527-13.031 31.229-15.32 28.451-18.771 24.262-17.581 20.604-15.486 18.877-12.617 16.514-9.667 17.217-4.537 20.102 1.743 23.641 6.424 24.219 10.933 20.504 15.669 16.602 16.877 9.719 10.911 2.479 8.472-.482 4.942-3.002 2.498-3.741Z" fill="#be1e2d"/>
<path transform="matrix(1,0,0,-1,571.5098,457.58015)" d="M0 0C-.157-1.549-1.038-4.633-3.183-7.891-7.998-15.207-16.094-16.703-23.511-11.82-30.978-6.906-33.026 1.769-27.813 9.688-26.099 12.293-23.931 14.17-22.536 14.977L-19.788 11.73C-21.083 11.074-22.722 9.783-24.306 7.378-27.967 1.814-25.837-3.896-20.775-7.229-15.162-10.923-9.329-9.59-6.163-4.779-4.513-2.273-4.075-.191-3.803 1.425Z" fill="#be1e2d"/>
<path transform="matrix(1,0,0,-1,537.7061,477.15235)" d="M0 0C-2.383 2.369-7.146 4.944-11.259 .658-14.955-3.195-13.025-8.289-10.676-11.127ZM-7.99-13.787C-2.756-18.643 2.523-17.389 6.18-13.579 8.796-10.852 9.898-8.75 10.662-6.74L14.014-8.707C13.332-10.631 11.822-13.59 8.624-16.924 2.435-23.374-5.506-23.156-11.826-17.092-18.146-11.026-19.553-2.525-13.695 3.578-7.131 10.418 .631 6.462 4.483 2.766 5.263 2.018 5.785 1.35 6.135 .933ZM-16.617 17.69-15.494 6.469-18.111 3.741-20.646 13.49Z" fill="#be1e2d"/>
<path transform="matrix(1,0,0,-1,582.8994,425.89454)" d="M0 0C2.651-1.403 5.013-2.586 7.112-3.492L4.924-7.629 .594-5.677 .537-5.783C1.961-8.098 3.234-12.232 .82-16.794-1.312-20.824-6.094-24.472-15.108-19.701L-30.115-11.76-27.646-7.093-13.435-14.613C-8.556-17.194-4.482-17.449-2.237-13.207-.582-10.078-1.605-6.754-3.225-4.811-3.773-4.181-4.538-3.572-5.387-3.124L-21.136 5.21-18.666 9.877Z" fill="#be1e2d"/>
<path transform="matrix(1,0,0,-1,580.5312,411.88874)" d="M0 0C-3.033 1.58-5.669 2.885-8.146 3.972L-6.013 8.069-.874 5.596-.763 5.809C-3.612 8.781-4.325 12.738-2.69 15.877-2.414 16.41-2.167 16.754-1.839 17.124L2.579 14.824C2.222 14.4 1.92 13.949 1.588 13.312-.131 10.012 1.151 6.367 4.331 3.9 4.914 3.462 5.604 2.968 6.401 2.552L20.132-4.598 17.721-9.228Z" fill="#be1e2d"/>
<path transform="matrix(1,0,0,-1,607.9414,402.14265)" d="M0 0-26.246 12.426-23.987 17.197 2.259 4.772ZM-31.106 21.231C-29.453 20.515-28.717 18.706-29.615 16.808-30.411 15.127-32.276 14.55-33.904 15.32-35.585 16.116-36.296 17.979-35.475 19.715-34.628 21.504-32.786 22.027-31.106 21.231" fill="#be1e2d"/>
<path transform="matrix(1,0,0,-1,585.4824,364.61433)" d="M0 0 7.264-4.098 10.979 2.486 14.479 .511 10.766-6.073 24.404-13.769C27.539-15.537 29.816-15.651 31.26-13.091 31.939-11.889 32.283-10.912 32.451-10.249L36.018-11.985C35.881-13.08 35.348-14.639 34.346-16.416 33.137-18.558 31.484-19.899 29.611-20.288 27.516-20.829 25.002-20.031 22.023-18.351L8.229-10.567 6.018-14.486 2.516-12.511 4.729-8.592-1.334-5.172Z" fill="#be1e2d"/>
<path transform="matrix(1,0,0,-1,618.1309,343.2979)" d="M0 0C-2.901 1.695-8.158 2.991-11.063-2.19-13.674-6.849-10.525-11.295-7.539-13.45ZM-4.271-15.351C2.016-18.736 6.811-16.196 9.392-11.59 11.239-8.293 11.778-5.981 12.014-3.844L15.751-4.907C15.575-6.94 14.857-10.184 12.599-14.214 8.229-22.012 .487-23.795-7.154-19.513-14.796-15.23-18.291-7.355-14.155 .023-9.52 8.294-1.014 6.415 3.645 3.804 4.587 3.275 5.261 2.761 5.703 2.444ZM-20.528 12.95-16.623 2.371-18.471-.927-23.374 7.873Z" fill="#be1e2d"/>
<path transform="matrix(1,0,0,-1,397.7617,506.20704)" d="M0 0C2.615 2.109 5.695 6.562 1.885 11.118-1.541 15.215-6.816 13.854-9.893 11.827ZM-12.831 9.448C-18.23 4.776-17.56-.608-14.173-4.658-11.748-7.558-9.779-8.882-7.864-9.863L-10.186-12.978C-12.023-12.089-14.8-10.266-17.764-6.724-23.499 .135-22.415 8.003-15.696 13.622-8.977 19.242-.374 19.712 5.053 13.222 11.135 5.949 6.355-1.332 2.259-4.759 1.431-5.452 .709-5.899 .256-6.2Z" fill="#be1e2d"/>
<g style="mix-blend-mode:multiply">
<g clip-path="url(#clip_16)">
<path transform="matrix(1,0,0,-1,384.4624,353.60163)" d="M0 0 .349 8.688V92.36L0 101.048C-.35 105.203-1.137 108.004-2.361 109.453-3.585 110.899-5.333 111.781-7.606 112.097-9.879 112.41-11.803 112.599-13.376 112.664-14.951 112.726-16.322 112.82-17.486 112.947V115.969H61.546V112.947L53.329 112.191C49.832 111.687 47.442 110.681 46.16 109.17 44.876 107.658 44.062 104.826 43.712 100.67L43.363 91.982V26.443C43.363 12.59 37.213 .724 24.916-9.16 12.617-19.047-.992-23.986-15.912-23.986-26.922-23.986-35.91-21.219-42.877-15.676-49.847-10.137-53.33-2.393-53.33 7.556-53.33 13.85-51.163 19.266-46.836 23.799-42.505 28.332-37.355 30.598-31.389 30.598-24.367 30.598-18.811 28.455-14.712 24.176-10.617 19.895-8.568 14.289-8.568 7.366-8.568 1.322-9.91-3.526-12.589-7.177-15.622-10.576-18.595-13.977-21.507-17.376-21.507-18.637-20.692-19.486-19.059-19.926-17.428-20.369-15.387-20.587-12.94-20.587-7.929-20.587-4.519-18.48-2.71-14.26-.904-10.043 0-5.288 0 0" fill="#be1e2d"/>
<path transform="matrix(1,0,0,-1,384.4624,353.60163)" stroke-width="1.079" stroke-linecap="butt" stroke-miterlimit="4" stroke-linejoin="miter" fill="none" stroke="#be1e2d" d="M0 0 .349 8.688V92.36L0 101.048C-.35 105.203-1.137 108.004-2.361 109.453-3.585 110.899-5.333 111.781-7.606 112.097-9.879 112.41-11.803 112.599-13.376 112.664-14.951 112.726-16.322 112.82-17.486 112.947V115.969H61.546V112.947L53.329 112.191C49.832 111.687 47.442 110.681 46.16 109.17 44.876 107.658 44.062 104.826 43.712 100.67L43.363 91.982V26.443C43.363 12.59 37.213 .724 24.916-9.16 12.617-19.047-.992-23.986-15.912-23.986-26.922-23.986-35.91-21.219-42.877-15.676-49.847-10.137-53.33-2.393-53.33 7.556-53.33 13.85-51.163 19.266-46.836 23.799-42.505 28.332-37.355 30.598-31.389 30.598-24.367 30.598-18.811 28.455-14.712 24.176-10.617 19.895-8.568 14.289-8.568 7.366-8.568 1.322-9.91-3.526-12.589-7.177-15.622-10.576-18.595-13.977-21.507-17.376-21.507-18.637-20.692-19.486-19.059-19.926-17.428-20.369-15.387-20.587-12.94-20.587-7.929-20.587-4.519-18.48-2.71-14.26-.904-10.043 0-5.288 0 0Z"/>
<path transform="matrix(1,0,0,-1,565.6064,334.90235)" d="M0 0C0-12.466-4.876-22.697-14.626-30.692-24.376-38.689-34.974-42.686-46.414-42.686-56.457-42.686-66.382-39.256-76.188-32.393-85.997-25.531-91.66-22.099-93.18-22.099-97.033-22.099-99.424-23.674-100.357-26.82-101.295-29.969-102.171-35.258-102.988-42.686H-105.961V24.932H-102.988C-102.288 22.287-101.093 17.943-99.403 11.898-97.717 5.854-94.566-1.355-89.963-9.728-85.356-18.104-79.296-25.059-71.776-30.598-64.259-36.141-55.544-38.908-45.637-38.908-39.925-38.908-35.263-37.273-31.649-33.998-28.035-30.725-26.227-26.82-26.227-22.287-26.227-16.875-27.568-12.593-30.248-9.444-32.932-6.299-37.769-3.244-44.762-.283-51.756 2.674-59.161 5.854-66.967 9.255-74.779 12.654-83.056 17.25-91.796 23.043-100.539 28.709-104.911 39.41-104.911 55.151-104.911 67.49-100.309 77.939-91.099 86.504-81.893 95.066-71.281 99.348-59.276 99.348-52.631 99.348-46.159 97.648-39.866 94.248L-21.683 83.293C-18.303 83.293-16.086 84.833-15.037 87.92-13.988 91.004-13.466 94.814-13.466 99.348H-10.141V49.295H-13.288C-13.87 51.436-15.062 55.086-16.866 60.25-18.668 65.412-22.153 71.205-27.328 77.627-32.503 84.049-37.618 88.676-42.675 91.509-47.734 94.342-53.809 95.759-60.896 95.759-65.667 95.759-70.086 94.248-74.152 91.226-78.223 88.204-80.258 84.426-80.258 79.893-80.258 75.107-78.714 71.111-75.623 67.9-72.535 64.689-68.978 62.139-64.956 60.25-60.935 58.362-55.37 55.969-48.261 53.073-41.152 50.175-33.778 46.808-26.14 42.969-18.508 39.126-12.239 33.525-7.343 26.158-2.446 18.793 0 10.072 0 0" fill="#be1e2d"/>
<path transform="matrix(1,0,0,-1,565.6064,334.90235)" stroke-width="1.079" stroke-linecap="butt" stroke-miterlimit="4" stroke-linejoin="miter" fill="none" stroke="#be1e2d" d="M0 0C0-12.466-4.876-22.697-14.626-30.692-24.376-38.689-34.974-42.686-46.414-42.686-56.457-42.686-66.382-39.256-76.188-32.393-85.997-25.531-91.66-22.099-93.18-22.099-97.033-22.099-99.424-23.674-100.357-26.82-101.295-29.969-102.171-35.258-102.988-42.686H-105.961V24.932H-102.988C-102.288 22.287-101.093 17.943-99.403 11.898-97.717 5.854-94.566-1.355-89.963-9.728-85.356-18.104-79.296-25.059-71.776-30.598-64.259-36.141-55.544-38.908-45.637-38.908-39.925-38.908-35.263-37.273-31.649-33.998-28.035-30.725-26.227-26.82-26.227-22.287-26.227-16.875-27.568-12.593-30.248-9.444-32.932-6.299-37.769-3.244-44.762-.283-51.756 2.674-59.161 5.854-66.967 9.255-74.779 12.654-83.056 17.25-91.796 23.043-100.539 28.709-104.911 39.41-104.911 55.151-104.911 67.49-100.309 77.939-91.099 86.504-81.893 95.066-71.281 99.348-59.276 99.348-52.631 99.348-46.159 97.648-39.866 94.248L-21.683 83.293C-18.303 83.293-16.086 84.833-15.037 87.92-13.988 91.004-13.466 94.814-13.466 99.348H-10.141V49.295H-13.288C-13.87 51.436-15.062 55.086-16.866 60.25-18.668 65.412-22.153 71.205-27.328 77.627-32.503 84.049-37.618 88.676-42.675 91.509-47.734 94.342-53.809 95.759-60.896 95.759-65.667 95.759-70.086 94.248-74.152 91.226-78.223 88.204-80.258 84.426-80.258 79.893-80.258 75.107-78.714 71.111-75.623 67.9-72.535 64.689-68.978 62.139-64.956 60.25-60.935 58.362-55.37 55.969-48.261 53.073-41.152 50.175-33.778 46.808-26.14 42.969-18.508 39.126-12.239 33.525-7.343 26.158-2.446 18.793 0 10.072 0 0Z"/>
</g>
</g>
</g>
</g>
</g>
</svg>
